# xmcd
#
# Track frame offsets:
#	150
#	24342
#	42175
#	63762
#	88380
#	106435
#	126782
#	153535
#	175487
#	193512
#	209722
#	243400
#
# Disc length: 3499 seconds
#
# Revision: 1
# Processed by: cddbd v1.5.2PL0 Copyright (c) Steve Scherf et al.
# Submitted via: audiograbber 1.83.01
#
DISCID=a80da90c
DTITLE=Various Artist - Jazziz 2009 01 Critics Choice
DYEAR=2009
DGENRE=Jazz
TTITLE0=Fourplay - Argentina
TTITLE1=Esperanza Spaulding - Fall In
TTITLE2=Bill Frisell - Probability Cloud
TTITLE3=Earl Klugh - Morning in Rio
TTITLE4=Oliver Ker Ourio - Maracaibo
TTITLE5=Gerald Albright - Walkin Down Beale Street
TTITLE6=Vince Mendoza - Blues For Pablo
TTITLE7=Jason Miles - Mr. Magic
TTITLE8=Andrew Hill and Chico Hamilton - And The Drums Sing
TTITLE9=Lazio Gardeny - Rhymes
TTITLE10=Guillermo Klein - Va Roman
TTITLE11=Mindi Abair - Out of the Blue
EXTD=YEAR: 2009
EXTT0=
EXTT1=
EXTT2=
EXTT3=
EXTT4=
EXTT5=
EXTT6=
EXTT7=
EXTT8=
EXTT9=
EXTT10=
EXTT11=
PLAYORDER=
